<svg xmlns="http://www.w3.org/2000/svg" viewBox="0 0 155.76 44.97"><defs><style>.cls-1{fill:#fff;}.cls-2{fill:none;stroke:#fff;stroke-miterlimit:10;stroke-width:0.43px;}</style></defs><title>dex-spark-logo</title><g id="Layer_2" data-name="Layer 2"><g id="Layer_1-2" data-name="Layer 1"><path class="cls-1" d="M20.66,29.36V23.57H31.34V20H20.66V15.27h10a19.55,19.55,0,0,0-2.53-3.59H16.37V32.94h12.1a19.32,19.32,0,0,0,2.4-3.58Z"/><path class="cls-1" d="M36.92,22.48c0-6,7.3-10.9,16.48-11.22l-.94,0c-7.41,0-13.74,3-16.27,7.19C33.23,8,19,0,1.9,0,1.26,0,.63,0,0,0c12.38.42,23,5,28.68,11.64a19.35,19.35,0,0,1,2.45,3.59,15.1,15.1,0,0,1,.17,14.09A19.4,19.4,0,0,1,29,32.94c-5.56,6.81-16.38,11.56-29,12,.63,0,1.26,0,1.9,0C19,45,33.23,37,36.19,26.54c2.53,4.21,8.86,7.19,16.27,7.19l.94,0C44.22,33.39,36.92,28.49,36.92,22.48Z"/><path class="cls-1" d="M12.07,11.68V25.26a3.87,3.87,0,1,1-1-2.63V18.11a7.68,7.68,0,1,0,4.86,7.15V11.68Z"/><path class="cls-1" d="M11.36,25.25a3.12,3.12,0,1,1-3.11-3.12,3.11,3.11,0,0,1,3.11,3.12"/><line class="cls-2" x1="60.89" y1="11.08" x2="60.89" y2="34.26"/><path class="cls-1" d="M69.46,30.16a10.45,10.45,0,0,0,5.26,1.48c3,0,4.75-1.59,4.75-3.88,0-2.12-1.21-3.34-4.28-4.52-3.71-1.31-6-3.24-6-6.44,0-3.54,2.93-6.17,7.35-6.17a10.36,10.36,0,0,1,5,1.11l-.81,2.4a9,9,0,0,0-4.31-1.08c-3.11,0-4.29,1.85-4.29,3.4,0,2.13,1.39,3.17,4.52,4.39,3.85,1.48,5.8,3.34,5.8,6.67,0,3.51-2.59,6.55-8,6.55a11.76,11.76,0,0,1-5.8-1.45Z"/><path class="cls-1" d="M86.32,11.27A33.48,33.48,0,0,1,92,10.83c2.9,0,5,.68,6.37,1.89a6.11,6.11,0,0,1,2,4.76,6.67,6.67,0,0,1-1.75,4.85,9.43,9.43,0,0,1-7,2.5,10.66,10.66,0,0,1-2.36-.2v9.1H86.32Zm2.93,11a9.75,9.75,0,0,0,2.43.24c3.54,0,5.7-1.72,5.7-4.86S95.25,13.16,92,13.16a12,12,0,0,0-2.77.24Z"/><path class="cls-1" d="M104.93,26.58l-2.36,7.15h-3L107.26,11h3.54l7.76,22.73h-3.14L113,26.58Zm7.46-2.29-2.23-6.54c-.5-1.49-.84-2.84-1.18-4.15h-.07c-.33,1.35-.7,2.73-1.14,4.11l-2.23,6.58Z"/><path class="cls-1" d="M121.73,11.3a30.86,30.86,0,0,1,5.63-.47c3.14,0,5.16.58,6.58,1.86A5.67,5.67,0,0,1,135.72,17a6,6,0,0,1-4.28,5.8v.1c1.76.61,2.8,2.23,3.34,4.59a36.43,36.43,0,0,0,1.75,6.24h-3A29.46,29.46,0,0,1,132,28.3c-.67-3.14-1.89-4.32-4.55-4.42h-2.77v9.85h-2.93Zm2.93,10.36h3c3.13,0,5.12-1.72,5.12-4.32,0-2.93-2.12-4.21-5.23-4.25a12.43,12.43,0,0,0-2.9.27Z"/><path class="cls-1" d="M139.71,11h2.93V22h.1c.61-.88,1.21-1.69,1.79-2.43L151.47,11h3.65l-8.23,9.65,8.87,13.08h-3.48L144.8,22.57l-2.16,2.49v8.67h-2.93Z"/></g></g></svg>