<svg xmlns="http://www.w3.org/2000/svg" viewBox="0 0 344.57 113.1"><defs><style>.cls-1{fill:#231f20;}</style></defs><title>pttgc-logo-bw</title><g id="Layer_2" data-name="Layer 2"><g id="Layer_1-2" data-name="Layer 1"><path class="cls-1" d="M292.86,45.52h46l5.69-18H156.73c-25.37,0-44.18,15.29-53.35,42.73S103,113,128.31,113h63.84l-.09-.1a11.07,11.07,0,0,0,1.48.1h.36c3.18,0,9.64-1.22,12.54-9.74h.05l12-37c.9-4.19-2.7-4.68-4.21-4.71H162.58l-5.78,17.5h21.06l-5.17,15.71H152.42c-13.49,0-16.58-9-11.43-24.48,2.45-7.4,5.84-13.3,10.16-17.46a24.37,24.37,0,0,1,9.56-5.79,26.28,26.28,0,0,1,8-1.21h60.4c6.93-6.78,12.71-10.2,15.72-11.51h8.44a58,58,0,0,0-10.95,8.56,28.94,28.94,0,0,0-2.36,2.71l-.18.24A75.18,75.18,0,0,0,227.31,70c-8.85,27.52.19,42.76,25.85,42.76h34.28l-.06,0,16.77,0h5.3a10.7,10.7,0,0,0,10.35-7.9l3.28-10.35H277c-4.07,0-7.2-.82-9.46-2.38-5.28-3.63-5.84-11.28-2.4-22.13C270.21,54.49,279.25,45.52,292.86,45.52Z"/><path class="cls-1" d="M52.09,0c-5,12.1-7.89,19.33-6.93,29.64,1,11,8.51,19.8,15.36,27.18,5.53,5.93,8.88,9.69,10.41,16.52a29.43,29.43,0,0,1-4.82,24.37c-8.49,11.51-22.2,11.92-22.2,11.92v3.47s16.34-.65,27.46-10.74c7.69-7,10.42-13.07,12.44-22.47,1.7-8-.35-19.37-5.34-28.13a79.76,79.76,0,0,0-8.8-12.42c-5.8-6.76-10-11.27-13.66-16.65-3.41-5-5.53-9.23-5.53-13.59A28.68,28.68,0,0,1,52.19.36Z"/><path class="cls-1" d="M32.31,0c5,12.1,7.89,19.33,6.92,29.64-1,11-8.51,19.8-15.35,27.18C18.34,62.75,15,66.51,13.46,73.34a29.44,29.44,0,0,0,4.83,24.37c8.48,11.51,22.21,11.92,22.21,11.92v3.47S24.15,112.45,13,102.36C5.33,95.37,2.61,89.29.58,79.89c-1.69-8,.36-19.37,5.34-28.13a79.11,79.11,0,0,1,8.81-12.42c5.8-6.76,10-11.27,13.65-16.65,3.41-5,5.53-9.23,5.53-13.59A28.68,28.68,0,0,0,32.2.36Z"/><path class="cls-1" d="M60.87,61.26a101.48,101.48,0,0,1-13.34-16,42,42,0,0,1-5.34-13.09,42.29,42.29,0,0,1-5.42,13.09c-4,6.57-11.17,13.94-13.52,16.28a26.79,26.79,0,1,0,37.62-.27Zm-18.68,41.1A21.89,21.89,0,1,1,64.08,80.48,21.89,21.89,0,0,1,42.19,102.36Z"/></g></g></svg>