<svg xmlns="http://www.w3.org/2000/svg" viewBox="0 0 606.47 199.07"><defs><style>.cls-1{fill:#065baa;}.cls-2{fill:#00aeef;}.cls-3{fill:#1b1464;}.cls-4{fill:#ed1c24;}</style></defs><title>pttgc-logo</title><g id="Layer_2" data-name="Layer 2"><g id="Layer_1-2" data-name="Layer 1"><path class="cls-1" d="M515.46,80.12h81l10-31.59H275.87c-44.66,0-77.77,26.9-93.91,75.2s-.69,75.14,43.87,75.14H338.21l-.17-.18a17.68,17.68,0,0,0,2.61.18h.63c5.59-.06,17-2.15,22.07-17.14h.09l21.18-65.06c1.58-7.38-4.76-8.24-7.42-8.29h-91L276,139.18h37.06L304,166.82H268.28c-23.76,0-29.19-15.85-20.13-43.09,4.32-13,10.28-23.4,17.88-30.73a43,43,0,0,1,16.84-10.19,46.25,46.25,0,0,1,14-2.13h106.3c12.2-11.93,22.37-18,27.67-20.25h14.86c-6.26,3.95-14,9.41-19.27,15.06a50.78,50.78,0,0,0-4.16,4.77l-.31.42c-9.12,11.42-16.46,25.64-21.89,42.54-15.58,48.45.35,75.27,45.51,75.27h60.32l-.09-.05,29.52.05h9.32c4.37-.09,14.26-1.71,18.21-13.92l5.78-18.2h-81c-7.16,0-12.66-1.44-16.65-4.2-9.3-6.38-10.27-19.86-4.21-38.95C475.59,95.91,491.51,80.12,515.46,80.12Z"/><path class="cls-2" d="M91.68,0C82.84,21.3,77.8,34,79.48,52.16c1.81,19.36,15,34.87,27,47.84,9.73,10.45,15.63,17.06,18.32,29.08,1.89,8.31,4,25.93-8.48,42.9-14.94,20.26-39.08,21-39.08,21v6.11s28.77-1.15,48.33-18.91c13.55-12.3,18.35-23,21.9-39.55,3-14-.62-34.1-9.39-49.51a140,140,0,0,0-15.5-21.86c-10.21-11.89-17.52-19.84-24-29.3-6-8.79-9.73-16.25-9.73-23.92,0-7.46,3-15.38,3-15.38Z"/><path class="cls-2" d="M56.87,0C65.7,21.3,70.76,34,69.05,52.16,67.27,71.52,54.07,87,42,100c-9.73,10.45-15.63,17.06-18.32,29.08-1.87,8.31-4,25.93,8.49,42.9,14.93,20.26,39.09,21,39.09,21v6.11s-28.78-1.15-48.35-18.91C9.39,167.86,4.59,157.15,1,140.61c-3-14,.63-34.1,9.4-49.51a139.3,139.3,0,0,1,15.5-21.86c10.22-11.89,17.52-19.84,24-29.3,6-8.79,9.75-16.25,9.75-23.92,0-7.46-3-15.38-3-15.38Z"/><path class="cls-3" d="M83.67,79.65c4.2,6.88,14.86,19.91,23.46,28.17a47.14,47.14,0,1,1-66.2.48c4.14-4.12,16.67-17.1,23.79-28.65a74.33,74.33,0,0,0,9.54-23,73.74,73.74,0,0,0,9.41,23"/><path class="cls-4" d="M112.79,141.65a38.52,38.52,0,1,1-38.53-38.52,38.53,38.53,0,0,1,38.53,38.52"/></g></g></svg>