<svg xmlns="http://www.w3.org/2000/svg" viewBox="0 0 311.9 64.26"><defs><style>.cls-1{fill:#b50938;}.cls-2,.cls-3{fill:#582e91;}.cls-3{fill-rule:evenodd;}</style></defs><title>vistec-logo-no-subtitle</title><g id="Layer_2" data-name="Layer 2"><g id="Layer_1-2" data-name="Layer 1"><path class="cls-1" d="M257.43,45a31.65,31.65,0,0,1,.09-25.12c5.2-11.86,16.8-19,30-19.31a33.89,33.89,0,0,1,24.34,9.53L301.77,22.86a16.85,16.85,0,0,0-14.46-6.58,15.77,15.77,0,0,0-14.9,16c.09,8.23,7,16,15.77,16.2,5.8.08,11.34-3,13.85-7.45l9.87,13.6c-6.32,6.41-14.89,9.44-23.55,9.61C275.19,64.43,262.63,56.81,257.43,45Z"/><rect class="cls-2" x="71.71" y="0.52" width="17.5" height="63.3"/><polygon class="cls-3" points="0 0.52 17.58 0.52 17.58 43.56 49.97 0.52 71.62 0.52 23.99 63.83 0 63.83 0 0.52"/><path class="cls-2" d="M123.24,63.91c-10.48,0-21-3.11-28.93-10.22l8.92-11.86c6.5,5.37,13.42,7.88,20.61,7.88a9.82,9.82,0,0,0,5.29-1.13,3.87,3.87,0,0,0,1.38-5c-1.56-2.6-7.27-3.55-10-4.24a77.81,77.81,0,0,1-9.18-2.51C102.54,34,96.48,27.89,97.26,18.27a18.31,18.31,0,0,1,8.4-14.2C110.07,1.21,115.79,0,121.16,0c9.18,0,18.1,2.34,25.37,8.23L137.61,20a32.83,32.83,0,0,0-11.78-5.29c-3.37-.78-7.44-1.12-9.78.61a3.68,3.68,0,0,0-1,4.85C116,21.74,118.3,22.43,120,23c1.38.43,3.11.87,5.28,1.39,4.76,1,10.39,2.42,14.89,5.19a16.13,16.13,0,0,1,8.15,15.24,19,19,0,0,1-10.83,16.29A33.23,33.23,0,0,1,123.24,63.91Z"/><polygon class="cls-1" points="254.41 48.84 221.27 48.84 221.27 38.89 251.49 38.89 251.49 25.03 221.27 25.03 221.27 15.94 254.41 15.94 254.41 0.69 203.66 0.69 203.66 63.74 254.41 63.74 254.41 48.84"/><polygon class="cls-1" points="200.79 0.69 146.62 0.69 146.62 15.94 165.5 15.94 165.5 63.74 182.91 63.74 182.91 15.94 200.79 15.94 200.79 0.69"/></g></g></svg>